<svg xmlns="http://www.w3.org/2000/svg" xmlns:xlink="http://www.w3.org/1999/xlink" width="512" zoomAndPan="magnify" viewBox="0 0 384 84.749999" height="113" preserveAspectRatio="xMidYMid meet" version="1.0"><defs><g/><clipPath id="ad6fd63eb9"><path d="M 78.667969 65.28125 L 80.910156 65.28125 L 80.910156 68.273438 L 78.667969 68.273438 Z M 78.667969 65.28125 " clip-rule="nonzero"/></clipPath><clipPath id="eea52197f4"><path d="M 79 65.28125 L 80 65.28125 L 80 67 L 79 67 Z M 79 65.28125 " clip-rule="nonzero"/></clipPath><clipPath id="e2ec2fdcab"><path d="M 80 67 L 80.910156 67 L 80.910156 68.273438 L 80 68.273438 Z M 80 67 " clip-rule="nonzero"/></clipPath><clipPath id="a22c3721a6"><path d="M 277 49 L 345 49 L 345 80.085938 L 277 80.085938 Z M 277 49 " clip-rule="nonzero"/></clipPath><clipPath id="b9a5829b29"><path d="M 358 29.980469 L 368 29.980469 L 368 41 L 358 41 Z M 358 29.980469 " clip-rule="nonzero"/></clipPath><clipPath id="8d555ffaad"><path d="M 346 70 L 379.402344 70 L 379.402344 72 L 346 72 Z M 346 70 " clip-rule="nonzero"/></clipPath><clipPath id="e2a9b242cf"><path d="M 276 39 L 281 39 L 281 42.3125 L 276 42.3125 Z M 276 39 " clip-rule="nonzero"/></clipPath><clipPath id="bf414f2ddf"><path d="M 279 4.921875 L 281 4.921875 L 281 11 L 279 11 Z M 279 4.921875 " clip-rule="nonzero"/></clipPath><clipPath id="edff77b330"><path d="M 264.875 14 L 271 14 L 271 18 L 264.875 18 Z M 264.875 14 " clip-rule="nonzero"/></clipPath><clipPath id="a4d1890c2b"><path d="M 290 14 L 295.535156 14 L 295.535156 18 L 290 18 Z M 290 14 " clip-rule="nonzero"/></clipPath></defs><g clip-path="url(#ad6fd63eb9)"><path fill="#02124e" d="M 79.328125 65.300781 C 79.328125 65.300781 78.667969 65.308594 78.675781 65.910156 C 78.683594 66.507812 78.804688 67.039062 79.003906 67.332031 C 79.199219 67.628906 79.707031 68.402344 80.28125 68.324219 C 80.28125 68.324219 80.566406 68.261719 80.78125 68.125 L 80.085938 67.574219 C 80.085938 67.574219 79.878906 67.707031 79.75 67.53125 C 79.621094 67.359375 79.21875 66.550781 79.21875 66.550781 C 79.21875 66.550781 79.105469 66.289062 79.355469 66.179688 Z M 79.328125 65.300781 " fill-opacity="1" fill-rule="nonzero"/></g><g clip-path="url(#eea52197f4)"><path fill="#02124e" d="M 79.40625 65.300781 C 79.40625 65.300781 79.457031 65.285156 79.554688 65.335938 C 79.648438 65.386719 79.648438 65.429688 79.648438 65.429688 L 79.65625 66.03125 C 79.65625 66.03125 79.628906 66.066406 79.597656 66.101562 C 79.5625 66.132812 79.449219 66.1875 79.433594 66.152344 C 79.414062 66.117188 79.40625 65.300781 79.40625 65.300781 Z M 79.40625 65.300781 " fill-opacity="1" fill-rule="nonzero"/></g><g clip-path="url(#e2ec2fdcab)"><path fill="#02124e" d="M 80.144531 67.511719 L 80.335938 67.410156 C 80.335938 67.410156 80.378906 67.402344 80.445312 67.445312 C 80.515625 67.488281 80.875 67.777344 80.875 67.777344 C 80.875 67.777344 80.9375 67.828125 80.917969 67.890625 C 80.902344 67.949219 80.859375 68.078125 80.859375 68.078125 Z M 80.144531 67.511719 " fill-opacity="1" fill-rule="nonzero"/></g><path fill="#000000" d="M 289.820312 65.914062 C 289.21875 65.636719 288.769531 65.078125 288.648438 64.390625 C 288.609375 64.164062 288.609375 63.9375 288.640625 63.722656 C 288.332031 63.542969 288.046875 63.335938 287.785156 63.105469 L 286.125 63.105469 C 285.664062 63.105469 285.292969 63.476562 285.292969 63.9375 L 285.292969 66.847656 C 285.292969 67.304688 285.664062 67.679688 286.125 67.679688 L 291.066406 67.679688 C 290.371094 67.375 289.875 66.707031 289.820312 65.914062 Z M 289.820312 65.914062 " fill-opacity="1" fill-rule="nonzero"/><g clip-path="url(#a22c3721a6)"><path fill="#000000" d="M 338.171875 78.003906 L 338.171875 79.25 C 338.171875 79.710938 338.542969 80.082031 339.003906 80.082031 L 343.988281 80.082031 C 344.449219 80.082031 344.820312 79.710938 344.820312 79.25 L 344.820312 64.421875 C 344.820312 63.960938 344.449219 63.589844 343.988281 63.589844 L 339.003906 63.589844 C 338.542969 63.589844 338.171875 63.960938 338.171875 64.421875 L 338.171875 68.300781 L 331.945312 68.300781 C 331.992188 68.148438 332.050781 68 332.109375 67.847656 C 332.167969 67.710938 332.226562 67.570312 332.289062 67.433594 L 333.097656 67.433594 C 334.53125 67.433594 335.691406 66.269531 335.691406 64.835938 C 335.691406 64.324219 335.542969 63.851562 335.289062 63.449219 C 335.394531 63.347656 335.496094 63.25 335.597656 63.15625 C 336.375 62.429688 336.960938 61.996094 336.960938 61.996094 C 334.363281 57.734375 308.179688 52.015625 305.269531 54.71875 C 304.925781 55.039062 304.546875 55.554688 304.15625 56.207031 C 303.746094 56.039062 303.34375 55.855469 302.957031 55.652344 C 303.402344 56.46875 303.625 57.296875 303.632812 58.164062 C 303.636719 58.589844 303.574219 59.023438 303.453125 59.449219 C 304.324219 57.460938 305.199219 55.917969 305.835938 55.328125 C 305.921875 55.25 306.46875 54.851562 308.8125 54.851562 C 312.605469 54.851562 318.910156 55.890625 324.871094 57.5 C 331.128906 59.1875 334.492188 60.8125 335.761719 61.894531 C 334.207031 63.214844 330.648438 66.648438 330.832031 70.285156 C 330.820312 70.328125 330.472656 71.058594 325.859375 71.058594 C 323.054688 71.058594 319.476562 70.796875 316.015625 70.546875 L 315.976562 70.542969 C 312.507812 70.292969 308.921875 70.03125 306.125 70.03125 C 303.300781 70.03125 301.625 70.28125 300.6875 70.847656 C 300.609375 70.894531 300.546875 70.921875 300.5 70.945312 C 300.304688 70.324219 300.414062 68 301.898438 63.515625 C 302.238281 62.484375 302.609375 61.484375 302.988281 60.550781 C 302.941406 60.628906 302.898438 60.707031 302.847656 60.78125 C 302.066406 61.996094 300.761719 63.011719 298.867188 63.875 C 296.898438 64.769531 294.34375 65.488281 291.054688 66.074219 C 290.9375 66.09375 290.8125 66.105469 290.691406 66.105469 C 290.542969 66.105469 290.394531 66.089844 290.253906 66.058594 C 290.390625 66.839844 291.070312 67.433594 291.890625 67.433594 L 299.957031 67.433594 C 299.894531 67.734375 299.839844 68.023438 299.789062 68.300781 L 283.734375 68.300781 L 283.734375 50.007812 C 283.734375 49.546875 283.363281 49.175781 282.902344 49.175781 L 277.917969 49.175781 C 277.457031 49.175781 277.085938 49.546875 277.085938 50.007812 L 277.085938 79.25 C 277.085938 79.710938 277.457031 80.082031 277.917969 80.082031 L 282.902344 80.082031 C 283.363281 80.082031 283.734375 79.710938 283.734375 79.25 L 283.734375 78.003906 Z M 338.171875 78.003906 " fill-opacity="1" fill-rule="nonzero"/></g><path fill="#000000" d="M 299.890625 58.136719 C 299.890625 58.148438 299.894531 58.160156 299.894531 58.167969 C 299.890625 58.339844 299.863281 58.5 299.699219 58.765625 C 299.53125 59.027344 299.191406 59.398438 298.535156 59.820312 C 297.234375 60.664062 294.691406 61.636719 290.402344 62.390625 C 289.5 62.550781 288.898438 63.414062 289.058594 64.316406 C 289.199219 65.125 289.902344 65.691406 290.691406 65.691406 C 290.789062 65.691406 290.886719 65.683594 290.984375 65.664062 C 294.382812 65.058594 296.859375 64.332031 298.695312 63.496094 C 300.523438 62.660156 301.757812 61.710938 302.5 60.554688 C 302.992188 59.792969 303.222656 58.941406 303.21875 58.167969 C 303.207031 56.824219 302.628906 55.8125 302.140625 55.136719 C 302.128906 55.125 302.121094 55.113281 302.109375 55.101562 C 301.621094 54.441406 301.167969 54.070312 301.101562 54.011719 C 300.390625 53.425781 299.34375 53.527344 298.761719 54.238281 C 298.429688 54.640625 298.320312 55.148438 298.414062 55.621094 C 298.410156 55.632812 298.402344 55.644531 298.394531 55.65625 C 297.8125 57.171875 297.226562 58.683594 296.644531 60.195312 C 297.417969 59.871094 297.945312 59.605469 298.3125 59.46875 C 298.824219 59.28125 299.371094 58.761719 299.890625 58.136719 Z M 299.890625 58.136719 " fill-opacity="1" fill-rule="nonzero"/><path fill="#000000" d="M 290.332031 61.980469 C 292.695312 61.5625 294.40625 61.050781 295.652344 60.589844 C 295.699219 60.429688 295.734375 60.269531 295.765625 60.105469 C 296.210938 57.5625 294.511719 55.136719 291.96875 54.691406 C 289.425781 54.246094 287.003906 55.945312 286.558594 58.488281 C 286.214844 60.449219 287.144531 62.335938 288.75 63.304688 C 289 62.636719 289.582031 62.113281 290.332031 61.980469 Z M 290.332031 61.980469 " fill-opacity="1" fill-rule="nonzero"/><path fill="#000000" d="M 290.296875 44.972656 C 290.34375 44.980469 290.390625 44.980469 290.480469 44.984375 C 290.527344 44.984375 290.585938 44.980469 290.65625 44.980469 C 290.675781 44.980469 290.695312 44.980469 290.71875 44.980469 C 291.023438 44.980469 291.378906 45.015625 291.785156 45.09375 L 291.992188 45.132812 C 292.746094 45.269531 293.199219 45.359375 293.339844 45.394531 C 293.625 45.46875 293.890625 45.570312 294.136719 45.699219 C 294.195312 45.730469 294.265625 45.753906 294.34375 45.777344 C 294.375 45.78125 294.40625 45.789062 294.4375 45.789062 C 294.441406 45.789062 294.441406 45.789062 294.441406 45.789062 C 294.621094 45.789062 294.738281 45.636719 294.777344 45.449219 C 294.785156 45.417969 294.792969 45.382812 294.792969 45.351562 C 294.777344 45.039062 294.464844 44.871094 293.964844 44.742188 C 293.882812 44.722656 293.789062 44.703125 293.683594 44.6875 C 293.582031 44.667969 293.453125 44.640625 293.292969 44.601562 C 293.199219 44.578125 293.089844 44.558594 292.957031 44.535156 C 292.386719 44.453125 291.988281 44.386719 291.773438 44.34375 L 292.824219 43.703125 C 292.953125 43.621094 293.074219 43.546875 293.183594 43.484375 C 293.53125 43.285156 294 42.976562 294.589844 42.566406 L 295.089844 42.222656 C 295.207031 42.144531 295.320312 42.070312 295.417969 41.996094 C 295.539062 41.902344 295.636719 41.847656 295.6875 41.835938 C 295.785156 41.796875 295.832031 41.800781 295.890625 41.742188 L 295.894531 41.742188 C 295.960938 41.679688 295.996094 41.59375 296.023438 41.488281 C 296.03125 41.449219 296.035156 41.410156 296.035156 41.375 C 296.046875 41.261719 295.960938 41.148438 295.851562 41.128906 C 295.742188 41.101562 295.597656 41.082031 295.402344 41.070312 C 295.035156 41.046875 294.6875 41 294.355469 40.925781 C 294.105469 40.871094 293.84375 40.824219 293.578125 40.777344 C 293.304688 40.730469 293.09375 40.6875 292.941406 40.644531 C 292.777344 40.597656 292.601562 40.546875 292.40625 40.5 C 292.375 40.492188 292.328125 40.46875 292.269531 40.429688 C 292.199219 40.382812 292.15625 40.359375 292.101562 40.34375 C 292.089844 40.335938 292.070312 40.335938 292.0625 40.335938 C 291.980469 40.339844 291.921875 40.378906 291.847656 40.433594 C 291.757812 40.496094 291.695312 40.566406 291.671875 40.660156 C 291.664062 40.6875 291.660156 40.714844 291.660156 40.742188 C 291.660156 40.847656 291.710938 40.949219 291.789062 41.039062 C 291.902344 41.164062 292.085938 41.246094 292.347656 41.3125 C 292.523438 41.355469 292.753906 41.398438 293.035156 41.4375 C 293.113281 41.445312 293.210938 41.460938 293.328125 41.484375 C 293.449219 41.503906 293.566406 41.523438 293.679688 41.539062 C 294.097656 41.605469 294.402344 41.660156 294.59375 41.703125 C 294.203125 42.003906 293.554688 42.425781 292.65625 42.964844 C 291.625 43.585938 290.851562 44 290.347656 44.203125 C 290.203125 44.261719 290.117188 44.394531 290.078125 44.5625 C 290.066406 44.601562 290.058594 44.644531 290.058594 44.683594 C 290.050781 44.824219 290.160156 44.945312 290.296875 44.972656 Z M 290.296875 44.972656 " fill-opacity="1" fill-rule="nonzero"/><path fill="#000000" d="M 308.300781 46.761719 C 308.667969 46.492188 308.871094 46.332031 308.945312 46.203125 L 308.953125 46.195312 L 308.960938 46.179688 C 308.972656 46.144531 308.980469 46.105469 308.980469 46.066406 C 308.980469 45.984375 308.941406 45.90625 308.878906 45.855469 C 308.804688 45.789062 308.71875 45.742188 308.628906 45.722656 C 308.546875 45.699219 308.445312 45.6875 308.3125 45.675781 C 308.246094 45.671875 308.195312 45.667969 308.152344 45.664062 C 308.097656 45.65625 308.050781 45.652344 308.011719 45.648438 C 307.648438 45.605469 307.324219 45.546875 307.042969 45.476562 C 306.835938 45.425781 306.671875 45.351562 306.550781 45.261719 C 306.515625 45.238281 306.496094 45.226562 306.460938 45.214844 C 306.410156 45.199219 306.363281 45.195312 306.316406 45.195312 C 306.148438 45.1875 306.011719 45.3125 305.976562 45.476562 C 305.96875 45.511719 305.964844 45.546875 305.964844 45.578125 C 305.972656 45.855469 306.226562 46.011719 306.617188 46.109375 C 306.800781 46.15625 306.980469 46.1875 307.15625 46.203125 C 307.449219 46.234375 307.664062 46.261719 307.792969 46.28125 C 307.152344 46.769531 306.285156 47.347656 305.183594 48.019531 C 305.191406 47.988281 305.195312 47.953125 305.195312 47.921875 C 305.191406 47.648438 304.949219 47.480469 304.589844 47.394531 C 304.320312 47.324219 303.921875 47.285156 303.390625 47.265625 C 303.261719 47.261719 303.15625 47.257812 303.082031 47.253906 C 303.167969 47.1875 303.300781 47.101562 303.460938 46.996094 C 304.144531 46.558594 304.667969 46.207031 305.03125 45.941406 C 305.402344 45.671875 305.601562 45.511719 305.679688 45.382812 L 305.683594 45.371094 C 305.703125 45.324219 305.710938 45.285156 305.710938 45.246094 C 305.714844 45.164062 305.671875 45.085938 305.609375 45.035156 C 305.535156 44.96875 305.453125 44.921875 305.359375 44.898438 C 305.28125 44.878906 305.175781 44.867188 305.042969 44.855469 C 304.976562 44.851562 304.925781 44.847656 304.882812 44.839844 C 304.828125 44.835938 304.78125 44.832031 304.746094 44.828125 C 304.378906 44.785156 304.054688 44.726562 303.773438 44.65625 C 303.566406 44.605469 303.40625 44.53125 303.28125 44.441406 C 303.246094 44.417969 303.226562 44.402344 303.191406 44.394531 C 303.140625 44.378906 303.09375 44.375 303.050781 44.375 C 302.882812 44.367188 302.742188 44.492188 302.707031 44.65625 C 302.699219 44.6875 302.695312 44.722656 302.695312 44.757812 C 302.703125 45.035156 302.960938 45.191406 303.351562 45.289062 C 303.53125 45.335938 303.710938 45.367188 303.890625 45.382812 C 304.183594 45.414062 304.394531 45.441406 304.523438 45.460938 C 303.886719 45.949219 303.015625 46.527344 301.914062 47.199219 C 301.921875 47.167969 301.925781 47.132812 301.925781 47.101562 C 301.925781 46.828125 301.683594 46.660156 301.324219 46.574219 C 301.050781 46.503906 300.652344 46.464844 300.121094 46.445312 C 299.996094 46.441406 299.890625 46.4375 299.8125 46.433594 C 299.902344 46.371094 300.03125 46.28125 300.195312 46.175781 C 300.875 45.738281 301.398438 45.386719 301.765625 45.121094 C 302.132812 44.851562 302.332031 44.691406 302.410156 44.5625 L 302.417969 44.550781 C 302.433594 44.503906 302.445312 44.464844 302.445312 44.425781 C 302.445312 44.34375 302.402344 44.265625 302.34375 44.214844 C 302.265625 44.148438 302.183594 44.101562 302.09375 44.078125 C 302.011719 44.058594 301.90625 44.046875 301.773438 44.035156 C 301.710938 44.03125 301.65625 44.027344 301.613281 44.023438 C 301.558594 44.015625 301.515625 44.011719 301.476562 44.007812 C 301.113281 43.964844 300.785156 43.90625 300.507812 43.835938 C 300.300781 43.785156 300.136719 43.710938 300.015625 43.621094 C 299.976562 43.597656 299.960938 43.585938 299.917969 43.570312 C 299.871094 43.558594 299.824219 43.554688 299.78125 43.554688 C 299.613281 43.546875 299.472656 43.671875 299.441406 43.835938 C 299.429688 43.867188 299.425781 43.902344 299.425781 43.9375 C 299.433594 44.214844 299.691406 44.371094 300.082031 44.46875 C 300.265625 44.515625 300.445312 44.546875 300.621094 44.5625 C 300.914062 44.59375 301.128906 44.621094 301.257812 44.640625 C 300.617188 45.128906 299.746094 45.707031 298.648438 46.378906 C 298.652344 46.347656 298.660156 46.3125 298.660156 46.28125 C 298.65625 46.007812 298.414062 45.839844 298.054688 45.753906 C 297.78125 45.683594 297.386719 45.644531 296.855469 45.625 C 296.726562 45.621094 296.621094 45.617188 296.542969 45.613281 C 296.632812 45.550781 296.761719 45.460938 296.925781 45.355469 C 297.605469 44.917969 298.128906 44.566406 298.496094 44.300781 C 298.863281 44.03125 299.066406 43.871094 299.140625 43.742188 L 299.148438 43.734375 L 299.152344 43.726562 L 299.152344 43.71875 C 299.167969 43.683594 299.175781 43.644531 299.175781 43.605469 C 299.175781 43.523438 299.136719 43.445312 299.074219 43.394531 C 299 43.328125 298.914062 43.28125 298.824219 43.257812 C 298.742188 43.238281 298.636719 43.226562 298.507812 43.214844 C 298.441406 43.210938 298.390625 43.207031 298.347656 43.203125 C 298.292969 43.195312 298.246094 43.191406 298.207031 43.1875 C 297.84375 43.144531 297.519531 43.085938 297.238281 43.015625 C 297.03125 42.964844 296.867188 42.890625 296.746094 42.800781 C 296.710938 42.777344 296.691406 42.765625 296.65625 42.753906 C 296.605469 42.738281 296.554688 42.734375 296.511719 42.734375 C 296.34375 42.726562 296.203125 42.851562 296.171875 43.015625 C 296.164062 43.050781 296.160156 43.085938 296.160156 43.117188 C 296.167969 43.394531 296.421875 43.550781 296.8125 43.648438 C 296.996094 43.695312 297.175781 43.726562 297.351562 43.742188 C 297.644531 43.773438 297.859375 43.800781 297.988281 43.824219 C 297.34375 44.3125 296.46875 44.894531 295.355469 45.574219 C 295.136719 45.707031 294.960938 45.816406 294.832031 45.90625 L 294.796875 45.925781 L 294.789062 45.964844 C 294.78125 45.988281 294.78125 46.003906 294.78125 46.019531 C 294.78125 46.117188 294.835938 46.199219 294.914062 46.257812 C 294.992188 46.324219 295.074219 46.371094 295.160156 46.390625 C 295.203125 46.402344 295.25 46.410156 295.292969 46.410156 C 295.398438 46.410156 295.503906 46.378906 295.609375 46.328125 C 295.726562 46.257812 295.929688 46.21875 296.203125 46.21875 C 296.296875 46.21875 296.402344 46.222656 296.511719 46.230469 C 296.957031 46.269531 297.273438 46.3125 297.445312 46.355469 C 297.753906 46.429688 297.976562 46.539062 298.121094 46.660156 C 298.132812 46.671875 298.144531 46.679688 298.15625 46.6875 C 298.136719 46.699219 298.117188 46.714844 298.097656 46.726562 L 298.066406 46.746094 L 298.054688 46.785156 C 298.050781 46.808594 298.050781 46.824219 298.050781 46.839844 C 298.050781 46.9375 298.105469 47.019531 298.179688 47.078125 C 298.261719 47.144531 298.34375 47.191406 298.425781 47.210938 C 298.472656 47.222656 298.515625 47.230469 298.5625 47.230469 C 298.667969 47.230469 298.773438 47.199219 298.878906 47.148438 C 298.996094 47.078125 299.195312 47.039062 299.46875 47.039062 C 299.566406 47.039062 299.667969 47.042969 299.78125 47.054688 C 300.226562 47.089844 300.539062 47.132812 300.714844 47.175781 C 301.019531 47.25 301.246094 47.359375 301.390625 47.480469 C 301.402344 47.492188 301.414062 47.5 301.421875 47.507812 C 301.40625 47.519531 301.386719 47.535156 301.367188 47.546875 L 301.335938 47.566406 L 301.324219 47.605469 C 301.320312 47.628906 301.320312 47.644531 301.320312 47.660156 C 301.320312 47.757812 301.375 47.839844 301.449219 47.898438 C 301.53125 47.964844 301.613281 48.011719 301.695312 48.03125 C 301.738281 48.042969 301.785156 48.050781 301.832031 48.050781 C 301.9375 48.050781 302.042969 48.019531 302.144531 47.964844 C 302.265625 47.898438 302.464844 47.859375 302.738281 47.859375 C 302.835938 47.859375 302.9375 47.863281 303.050781 47.871094 C 303.496094 47.910156 303.808594 47.953125 303.980469 47.996094 C 304.289062 48.070312 304.515625 48.175781 304.660156 48.300781 C 304.667969 48.3125 304.683594 48.320312 304.691406 48.328125 C 304.671875 48.339844 304.652344 48.355469 304.636719 48.367188 L 304.601562 48.386719 L 304.59375 48.425781 C 304.589844 48.449219 304.585938 48.464844 304.585938 48.480469 C 304.585938 48.578125 304.644531 48.660156 304.71875 48.71875 C 304.796875 48.785156 304.878906 48.832031 304.964844 48.851562 C 305.007812 48.863281 305.054688 48.871094 305.101562 48.871094 C 305.203125 48.871094 305.308594 48.839844 305.414062 48.785156 C 305.535156 48.71875 305.734375 48.679688 306.007812 48.679688 C 306.101562 48.679688 306.207031 48.683594 306.320312 48.691406 C 306.765625 48.730469 307.078125 48.769531 307.25 48.816406 C 307.558594 48.890625 307.785156 48.996094 307.929688 49.121094 C 307.972656 49.164062 308.023438 49.203125 308.074219 49.242188 L 308.128906 49.285156 L 308.191406 49.25 C 308.324219 49.167969 308.410156 49.03125 308.449219 48.859375 C 308.460938 48.820312 308.464844 48.78125 308.464844 48.742188 C 308.460938 48.46875 308.21875 48.300781 307.859375 48.214844 C 307.589844 48.144531 307.191406 48.105469 306.660156 48.085938 C 306.53125 48.082031 306.425781 48.078125 306.351562 48.074219 C 306.4375 48.011719 306.570312 47.921875 306.730469 47.816406 C 307.414062 47.378906 307.9375 47.027344 308.300781 46.761719 Z M 308.300781 46.761719 " fill-opacity="1" fill-rule="nonzero"/><path fill="#000000" d="M 308.949219 49.417969 C 308.964844 49.421875 308.980469 49.421875 309 49.421875 C 309.070312 49.421875 309.148438 49.398438 309.25 49.355469 C 309.371094 49.308594 309.46875 49.257812 309.539062 49.199219 C 309.625 49.125 309.675781 49.019531 309.710938 48.878906 C 309.714844 48.855469 309.71875 48.828125 309.71875 48.804688 C 309.722656 48.734375 309.691406 48.667969 309.648438 48.617188 C 309.597656 48.558594 309.542969 48.511719 309.472656 48.492188 L 309.402344 48.476562 C 309.269531 48.441406 309.164062 48.425781 309.074219 48.425781 C 308.984375 48.425781 308.910156 48.433594 308.84375 48.496094 C 308.777344 48.570312 308.761719 48.660156 308.710938 48.835938 C 308.683594 48.945312 308.667969 49.035156 308.667969 49.109375 C 308.667969 49.164062 308.675781 49.214844 308.703125 49.261719 C 308.757812 49.34375 308.847656 49.390625 308.949219 49.417969 Z M 308.949219 49.417969 " fill-opacity="1" fill-rule="nonzero"/><path fill="#000000" d="M 310.582031 49.828125 C 310.601562 49.832031 310.613281 49.832031 310.632812 49.832031 C 310.703125 49.832031 310.777344 49.808594 310.882812 49.765625 C 311.003906 49.71875 311.097656 49.667969 311.171875 49.609375 C 311.257812 49.535156 311.308594 49.429688 311.34375 49.289062 C 311.347656 49.265625 311.351562 49.242188 311.351562 49.214844 C 311.355469 49.144531 311.324219 49.078125 311.28125 49.023438 C 311.230469 48.96875 311.175781 48.921875 311.105469 48.902344 L 311.035156 48.886719 L 311.007812 48.984375 L 311.035156 48.886719 C 310.90625 48.851562 310.796875 48.835938 310.707031 48.835938 C 310.617188 48.835938 310.539062 48.84375 310.476562 48.90625 C 310.410156 48.980469 310.390625 49.070312 310.34375 49.246094 C 310.316406 49.355469 310.300781 49.441406 310.300781 49.519531 C 310.300781 49.574219 310.308594 49.625 310.339844 49.671875 C 310.390625 49.753906 310.480469 49.800781 310.582031 49.828125 Z M 310.582031 49.828125 " fill-opacity="1" fill-rule="nonzero"/><path fill="#000000" d="M 312.667969 49.296875 C 312.535156 49.261719 312.429688 49.246094 312.339844 49.242188 C 312.25 49.246094 312.175781 49.253906 312.109375 49.316406 C 312.042969 49.390625 312.023438 49.480469 311.976562 49.65625 C 311.949219 49.765625 311.933594 49.851562 311.933594 49.929688 C 311.933594 49.984375 311.941406 50.03125 311.96875 50.082031 C 312.023438 50.164062 312.113281 50.210938 312.214844 50.238281 C 312.234375 50.242188 312.246094 50.242188 312.265625 50.242188 C 312.335938 50.242188 312.410156 50.21875 312.515625 50.175781 C 312.636719 50.125 312.730469 50.078125 312.804688 50.019531 C 312.890625 49.945312 312.941406 49.835938 312.976562 49.699219 C 312.980469 49.675781 312.984375 49.648438 312.984375 49.625 C 312.984375 49.554688 312.957031 49.488281 312.914062 49.433594 C 312.859375 49.375 312.808594 49.332031 312.734375 49.3125 Z M 312.667969 49.296875 " fill-opacity="1" fill-rule="nonzero"/><path fill="#000000" d="M 371.703125 69.222656 L 371.703125 57.484375 L 373.820312 57.484375 L 373.820312 56.085938 L 357.746094 56.085938 L 357.746094 57.484375 L 359.761719 57.484375 L 359.761719 69.222656 L 361.226562 69.222656 L 361.226562 57.484375 L 370.234375 57.484375 L 370.234375 69.222656 Z M 371.703125 69.222656 " fill-opacity="1" fill-rule="nonzero"/><path fill="#000000" d="M 373.613281 48.96875 L 370.863281 54.386719 L 365.015625 54.386719 L 365.015625 55.363281 L 371.460938 55.363281 L 374.484375 49.414062 Z M 373.613281 48.96875 " fill-opacity="1" fill-rule="nonzero"/><path fill="#000000" d="M 364.015625 40.515625 C 361.402344 40.515625 359.28125 42.636719 359.28125 45.25 C 359.28125 47.863281 361.402344 49.984375 364.015625 49.984375 C 364.957031 49.984375 365.832031 49.707031 366.570312 49.234375 L 368.742188 50.554688 L 367.398438 48.558594 C 368.230469 47.703125 368.746094 46.539062 368.746094 45.25 C 368.746094 42.636719 366.628906 40.515625 364.015625 40.515625 Z M 364.164062 49.378906 C 361.988281 49.378906 360.222656 47.609375 360.222656 45.433594 C 360.222656 43.253906 361.988281 41.488281 364.164062 41.488281 C 366.34375 41.488281 368.109375 43.253906 368.109375 45.433594 C 368.109375 47.609375 366.34375 49.378906 364.164062 49.378906 Z M 364.164062 49.378906 " fill-opacity="1" fill-rule="nonzero"/><path fill="#000000" d="M 365.921875 45.355469 C 365.667969 45.164062 365.179688 45.019531 364.464844 44.921875 L 364.464844 43.445312 C 364.984375 43.492188 365.265625 43.699219 365.3125 44.0625 L 366.15625 44.0625 C 366.054688 43.40625 365.492188 43.050781 364.464844 42.996094 L 364.464844 42.546875 L 364.003906 42.546875 L 364.003906 42.996094 C 363.46875 43.03125 363.042969 43.152344 362.726562 43.363281 C 362.410156 43.574219 362.253906 43.855469 362.253906 44.199219 C 362.253906 44.816406 362.835938 45.203125 364.003906 45.359375 L 364.003906 47 C 363.371094 46.929688 363.019531 46.648438 362.957031 46.160156 L 362.117188 46.160156 C 362.199219 46.929688 362.828125 47.359375 364.003906 47.449219 L 364.003906 47.894531 L 364.464844 47.894531 L 364.464844 47.441406 C 365.042969 47.417969 365.496094 47.28125 365.820312 47.027344 C 366.144531 46.777344 366.308594 46.476562 366.308594 46.136719 C 366.308594 45.808594 366.179688 45.546875 365.921875 45.355469 Z M 364.003906 44.855469 C 363.734375 44.808594 363.511719 44.734375 363.34375 44.636719 C 363.175781 44.535156 363.089844 44.375 363.089844 44.15625 C 363.089844 43.75 363.394531 43.511719 364.003906 43.4375 Z M 364.464844 47 L 364.464844 45.429688 C 364.863281 45.5 365.125 45.589844 365.261719 45.699219 C 365.398438 45.8125 365.464844 45.96875 365.464844 46.171875 C 365.464844 46.667969 365.132812 46.945312 364.464844 47 Z M 364.464844 47 " fill-opacity="1" fill-rule="nonzero"/><g clip-path="url(#b9a5829b29)"><path fill="#000000" d="M 358.402344 34.714844 C 358.402344 37.332031 360.519531 39.449219 363.132812 39.449219 C 364.121094 39.449219 365.039062 39.144531 365.800781 38.625 L 367.707031 40.171875 L 366.601562 37.933594 C 367.382812 37.089844 367.863281 35.957031 367.863281 34.714844 C 367.863281 32.101562 365.746094 29.980469 363.132812 29.980469 C 360.519531 29.980469 358.402344 32.101562 358.402344 34.714844 Z M 363.285156 30.953125 C 365.460938 30.953125 367.226562 32.71875 367.226562 34.898438 C 367.226562 37.078125 365.460938 38.84375 363.285156 38.84375 C 361.105469 38.84375 359.339844 37.078125 359.339844 34.898438 C 359.339844 32.71875 361.105469 30.953125 363.285156 30.953125 Z M 363.285156 30.953125 " fill-opacity="1" fill-rule="nonzero"/></g><path fill="#000000" d="M 362.074219 35.625 L 361.238281 35.625 C 361.316406 36.398438 361.945312 36.824219 363.121094 36.914062 L 363.121094 37.363281 L 363.585938 37.363281 L 363.585938 36.910156 C 364.160156 36.886719 364.613281 36.75 364.9375 36.496094 C 365.261719 36.242188 365.425781 35.945312 365.425781 35.601562 C 365.425781 35.273438 365.296875 35.015625 365.042969 34.824219 C 364.785156 34.632812 364.300781 34.488281 363.585938 34.386719 L 363.585938 32.910156 C 364.101562 32.960938 364.386719 33.164062 364.433594 33.53125 L 365.273438 33.53125 C 365.171875 32.871094 364.609375 32.515625 363.585938 32.464844 L 363.585938 32.011719 L 363.121094 32.011719 L 363.121094 32.464844 C 362.585938 32.496094 362.160156 32.621094 361.84375 32.832031 C 361.527344 33.042969 361.371094 33.320312 361.371094 33.667969 C 361.371094 34.28125 361.953125 34.667969 363.121094 34.828125 L 363.121094 36.46875 C 362.488281 36.394531 362.136719 36.113281 362.074219 35.625 Z M 363.585938 34.898438 C 363.980469 34.96875 364.246094 35.058594 364.378906 35.167969 C 364.515625 35.277344 364.582031 35.433594 364.582031 35.636719 C 364.582031 36.132812 364.25 36.410156 363.585938 36.46875 Z M 362.460938 34.101562 C 362.292969 34.003906 362.210938 33.84375 362.210938 33.625 C 362.210938 33.214844 362.511719 32.976562 363.121094 32.90625 L 363.121094 34.320312 C 362.851562 34.277344 362.628906 34.203125 362.460938 34.101562 Z M 362.460938 34.101562 " fill-opacity="1" fill-rule="nonzero"/><path fill="#000000" d="M 378.234375 40.226562 C 378.234375 37.613281 376.113281 35.492188 373.5 35.492188 C 370.886719 35.492188 368.769531 37.613281 368.769531 40.226562 C 368.769531 42.4375 370.285156 44.292969 372.332031 44.816406 L 372.707031 47.222656 L 373.347656 44.957031 C 373.398438 44.960938 373.449219 44.960938 373.5 44.960938 C 376.113281 44.960938 378.234375 42.84375 378.234375 40.226562 Z M 373.652344 44.355469 C 371.476562 44.355469 369.710938 42.589844 369.710938 40.410156 C 369.710938 38.230469 371.476562 36.464844 373.652344 36.464844 C 375.832031 36.464844 377.597656 38.230469 377.597656 40.410156 C 377.597656 42.589844 375.832031 44.355469 373.652344 44.355469 Z M 373.652344 44.355469 " fill-opacity="1" fill-rule="nonzero"/><path fill="#000000" d="M 375.410156 40.332031 C 375.152344 40.144531 374.667969 39.996094 373.953125 39.898438 L 373.953125 38.421875 C 374.472656 38.46875 374.753906 38.675781 374.800781 39.039062 L 375.644531 39.039062 C 375.542969 38.382812 374.980469 38.027344 373.953125 37.976562 L 373.953125 37.523438 L 373.492188 37.523438 L 373.492188 37.976562 C 372.953125 38.007812 372.527344 38.128906 372.210938 38.34375 C 371.898438 38.554688 371.738281 38.832031 371.738281 39.179688 C 371.738281 39.792969 372.324219 40.179688 373.492188 40.339844 L 373.492188 41.980469 C 372.855469 41.90625 372.507812 41.625 372.445312 41.136719 L 371.605469 41.136719 C 371.6875 41.90625 372.316406 42.335938 373.492188 42.425781 L 373.492188 42.875 L 373.953125 42.875 L 373.953125 42.417969 C 374.53125 42.398438 374.980469 42.261719 375.304688 42.007812 C 375.632812 41.753906 375.796875 41.457031 375.796875 41.113281 C 375.792969 40.785156 375.667969 40.523438 375.410156 40.332031 Z M 373.492188 39.832031 C 373.21875 39.785156 373 39.714844 372.832031 39.613281 C 372.664062 39.511719 372.578125 39.355469 372.578125 39.132812 C 372.578125 38.726562 372.882812 38.488281 373.492188 38.414062 Z M 373.953125 41.980469 L 373.953125 40.410156 C 374.347656 40.480469 374.613281 40.570312 374.75 40.679688 C 374.882812 40.789062 374.953125 40.945312 374.953125 41.148438 C 374.953125 41.644531 374.621094 41.921875 373.953125 41.980469 Z M 373.953125 41.980469 " fill-opacity="1" fill-rule="nonzero"/><path fill="#000000" d="M 357.902344 69.128906 L 357.902344 63.726562 L 358.226562 63.726562 L 358.226562 62.1875 L 351.085938 62.1875 C 351.246094 58.167969 350.949219 54.132812 350.191406 50.160156 C 349.6875 50.257812 349.1875 50.351562 348.683594 50.449219 C 349.859375 56.621094 349.894531 62.949219 348.789062 69.128906 L 350.351562 69.128906 C 350.464844 68.480469 350.5625 67.828125 350.648438 67.175781 L 356.367188 67.175781 L 356.367188 69.128906 Z M 350.757812 66.335938 C 350.859375 65.46875 350.941406 64.597656 351 63.726562 L 356.367188 63.726562 L 356.367188 66.335938 Z M 350.757812 66.335938 " fill-opacity="1" fill-rule="nonzero"/><g clip-path="url(#8d555ffaad)"><path fill="#000000" d="M 346.023438 70.804688 L 379.269531 70.804688 L 379.269531 71.84375 L 346.023438 71.84375 Z M 346.023438 70.804688 " fill-opacity="1" fill-rule="nonzero"/></g><path fill="#000000" d="M 283.707031 39.90625 L 277.195312 37.339844 C 276.90625 37.214844 276.621094 37.339844 276.539062 37.628906 C 276.453125 37.917969 276.578125 38.210938 276.824219 38.292969 L 283.335938 40.859375 C 283.460938 40.898438 283.832031 40.984375 283.996094 40.609375 C 284.160156 40.277344 283.914062 39.988281 283.707031 39.90625 Z M 283.707031 39.90625 " fill-opacity="1" fill-rule="nonzero"/><g clip-path="url(#e2a9b242cf)"><path fill="#000000" d="M 280.535156 41.230469 L 277.195312 39.90625 C 276.949219 39.78125 276.621094 39.90625 276.496094 40.15625 C 276.371094 40.402344 276.496094 40.734375 276.742188 40.859375 C 276.742188 40.859375 280.121094 42.183594 280.121094 42.183594 C 280.289062 42.226562 280.574219 42.308594 280.78125 41.894531 C 280.90625 41.644531 280.78125 41.3125 280.535156 41.230469 Z M 280.535156 41.230469 " fill-opacity="1" fill-rule="nonzero"/></g><path fill="#000000" d="M 284.285156 11.21875 C 284.324219 11.261719 284.40625 11.261719 284.492188 11.261719 C 284.695312 11.261719 284.902344 11.136719 284.984375 10.929688 L 286.632812 6.746094 C 286.757812 6.5 286.59375 6.167969 286.34375 6.085938 C 286.097656 5.960938 285.769531 6.125 285.6875 6.375 L 284.039062 10.554688 C 283.871094 10.804688 283.996094 11.136719 284.285156 11.21875 Z M 284.285156 11.21875 " fill-opacity="1" fill-rule="nonzero"/><g clip-path="url(#bf414f2ddf)"><path fill="#000000" d="M 280.289062 10.433594 C 280.574219 10.433594 280.78125 10.183594 280.78125 9.933594 L 280.78125 5.421875 C 280.78125 5.132812 280.535156 4.925781 280.289062 4.925781 C 280.039062 4.925781 279.792969 5.175781 279.792969 5.421875 L 279.792969 9.933594 C 279.75 10.226562 280 10.433594 280.289062 10.433594 Z M 280.289062 10.433594 " fill-opacity="1" fill-rule="nonzero"/></g><path fill="#000000" d="M 271.878906 13.621094 C 271.964844 13.703125 272.085938 13.785156 272.25 13.785156 C 272.375 13.785156 272.539062 13.742188 272.621094 13.621094 C 272.828125 13.414062 272.828125 13.082031 272.621094 12.875 L 269.449219 9.6875 C 269.242188 9.480469 268.914062 9.519531 268.707031 9.726562 C 268.542969 9.933594 268.542969 10.226562 268.707031 10.433594 Z M 271.878906 13.621094 " fill-opacity="1" fill-rule="nonzero"/><g clip-path="url(#edff77b330)"><path fill="#000000" d="M 270.191406 17.304688 C 270.316406 17.054688 270.148438 16.722656 269.902344 16.640625 L 265.742188 14.984375 C 265.492188 14.820312 265.164062 14.902344 265.039062 15.152344 C 264.875 15.398438 264.957031 15.730469 265.203125 15.855469 C 265.246094 15.894531 269.574219 17.59375 269.574219 17.59375 C 269.613281 17.636719 269.695312 17.636719 269.777344 17.636719 C 269.945312 17.636719 270.109375 17.511719 270.191406 17.304688 Z M 270.191406 17.304688 " fill-opacity="1" fill-rule="nonzero"/></g><path fill="#000000" d="M 275.589844 10.929688 C 275.671875 11.136719 275.878906 11.261719 276.082031 11.261719 C 276.167969 11.261719 276.207031 11.261719 276.289062 11.21875 C 276.539062 11.09375 276.703125 10.804688 276.578125 10.554688 L 274.929688 6.375 C 274.804688 6.125 274.519531 5.960938 274.269531 6.085938 C 274.023438 6.210938 273.859375 6.5 273.980469 6.746094 Z M 275.589844 10.929688 " fill-opacity="1" fill-rule="nonzero"/><path fill="#000000" d="M 288.28125 13.785156 C 288.40625 13.785156 288.527344 13.742188 288.652344 13.621094 L 291.824219 10.433594 C 292.03125 10.226562 292.074219 9.933594 291.867188 9.6875 C 291.660156 9.480469 291.371094 9.4375 291.125 9.644531 C 291.125 9.644531 291.085938 9.6875 291.085938 9.6875 L 287.910156 12.875 C 287.703125 13.082031 287.703125 13.414062 287.910156 13.621094 C 288.035156 13.742188 288.160156 13.785156 288.28125 13.785156 Z M 288.28125 13.785156 " fill-opacity="1" fill-rule="nonzero"/><g clip-path="url(#a4d1890c2b)"><path fill="#000000" d="M 295.453125 15.277344 C 295.328125 15.027344 295.039062 14.902344 294.792969 14.984375 L 290.628906 16.640625 C 290.382812 16.765625 290.21875 17.054688 290.34375 17.304688 C 290.425781 17.511719 290.589844 17.636719 290.835938 17.636719 C 290.917969 17.636719 290.960938 17.636719 291.042969 17.59375 L 295.203125 15.9375 C 295.410156 15.855469 295.535156 15.523438 295.453125 15.277344 Z M 295.453125 15.277344 " fill-opacity="1" fill-rule="nonzero"/></g><path fill="#000000" d="M 278.144531 19.828125 C 278.144531 20.242188 278.554688 20.699219 278.925781 20.824219 L 279.835938 21.195312 L 279.835938 17.222656 L 279.503906 17.222656 C 278.761719 17.222656 278.144531 17.84375 278.144531 18.585938 C 278.144531 18.585938 278.144531 19.828125 278.144531 19.828125 Z M 278.144531 19.828125 " fill-opacity="1" fill-rule="nonzero"/><path fill="#000000" d="M 280.90625 26.617188 L 281.027344 26.617188 C 281.769531 26.617188 282.390625 25.996094 282.390625 25.253906 L 282.390625 23.96875 C 282.390625 23.636719 282.140625 23.183594 281.566406 22.933594 L 280.90625 22.726562 Z M 280.90625 26.617188 " fill-opacity="1" fill-rule="nonzero"/><path fill="#000000" d="M 280.121094 11.300781 C 274.476562 11.382812 269.902344 16.019531 269.945312 21.691406 C 269.945312 24.632812 271.179688 27.40625 273.324219 29.390625 C 273.40625 29.433594 273.488281 29.558594 273.613281 29.640625 C 275.21875 31.089844 276.207031 33.117188 276.414062 35.269531 C 276.453125 35.4375 276.578125 35.601562 276.742188 35.683594 L 283.253906 38.25 C 283.296875 38.292969 283.585938 38.332031 283.707031 38.210938 C 283.832031 38.125 283.953125 37.960938 283.953125 37.796875 L 284.121094 35.230469 C 284.324219 33.074219 285.316406 31.089844 286.921875 29.640625 L 287.25 29.390625 C 291.453125 25.5 291.742188 18.960938 287.910156 14.738281 C 286.015625 12.625 283.296875 11.425781 280.492188 11.382812 C 280.371094 11.300781 280.164062 11.300781 280.121094 11.300781 Z M 283.378906 19.167969 C 283.378906 19.457031 283.128906 19.664062 282.882812 19.664062 C 282.636719 19.664062 282.390625 19.414062 282.390625 19.167969 L 282.390625 18.585938 C 282.390625 17.84375 281.8125 17.222656 281.070312 17.222656 L 280.945312 17.222656 L 280.945312 21.609375 C 280.945312 21.609375 282.101562 22.066406 282.101562 22.066406 C 283.007812 22.476562 283.417969 23.304688 283.417969 24.011719 L 283.417969 25.292969 C 283.417969 26.617188 282.347656 27.695312 281.027344 27.695312 L 280.90625 27.695312 L 280.90625 28.480469 C 280.90625 28.769531 280.65625 28.976562 280.410156 28.976562 C 280.164062 28.976562 279.917969 28.730469 279.917969 28.480469 L 279.917969 27.695312 L 279.585938 27.695312 C 278.269531 27.695312 277.195312 26.617188 277.195312 25.292969 L 277.195312 24.714844 C 277.195312 24.425781 277.445312 24.21875 277.691406 24.21875 C 277.9375 24.21875 278.1875 24.464844 278.1875 24.714844 L 278.1875 25.292969 C 278.1875 26.039062 278.804688 26.660156 279.546875 26.660156 L 279.875 26.660156 L 279.875 22.3125 C 279.875 22.3125 278.472656 21.773438 278.433594 21.734375 C 277.566406 21.359375 277.15625 20.53125 277.15625 19.828125 L 277.15625 18.585938 C 277.15625 17.261719 278.226562 16.1875 279.546875 16.1875 L 279.875 16.1875 L 279.875 15.441406 C 279.875 15.152344 280.121094 14.945312 280.371094 14.945312 C 280.617188 14.945312 280.863281 15.191406 280.863281 15.441406 L 280.863281 16.1875 L 281.027344 16.1875 C 282.347656 16.1875 283.417969 17.261719 283.378906 18.585938 Z M 283.378906 19.167969 " fill-opacity="1" fill-rule="nonzero"/><g fill="#168119" fill-opacity="1"><g transform="translate(10.166202, 41.082628)"><g><path d="M 20.078125 -12.59375 L 8.578125 -12.59375 L 8.578125 -4.8125 L 22.078125 -4.8125 L 22.078125 0 L 2.59375 0 L 2.59375 -29.0625 L 22.03125 -29.0625 L 22.03125 -24.203125 L 8.578125 -24.203125 L 8.578125 -17.28125 L 20.078125 -17.28125 Z M 20.078125 -12.59375 "/></g></g></g><g fill="#168119" fill-opacity="1"><g transform="translate(32.747701, 41.082628)"><g><path d="M 19 -5.984375 L 8.5 -5.984375 L 6.5 0 L 0.140625 0 L 10.953125 -29.0625 L 16.5 -29.0625 L 27.390625 0 L 21.015625 0 Z M 10.125 -10.84375 L 17.390625 -10.84375 L 13.734375 -21.71875 Z M 10.125 -10.84375 "/></g></g></g><g fill="#168119" fill-opacity="1"><g transform="translate(59.839447, 41.082628)"><g><path d="M 13.359375 -10.640625 L 8.578125 -10.640625 L 8.578125 0 L 2.59375 0 L 2.59375 -29.0625 L 13.390625 -29.0625 C 16.828125 -29.0625 19.472656 -28.296875 21.328125 -26.765625 C 23.191406 -25.234375 24.125 -23.070312 24.125 -20.28125 C 24.125 -18.289062 23.695312 -16.632812 22.84375 -15.3125 C 21.988281 -13.988281 20.6875 -12.9375 18.9375 -12.15625 L 25.234375 -0.28125 L 25.234375 0 L 18.796875 0 Z M 8.578125 -15.484375 L 13.40625 -15.484375 C 14.914062 -15.484375 16.082031 -15.863281 16.90625 -16.625 C 17.726562 -17.394531 18.140625 -18.453125 18.140625 -19.796875 C 18.140625 -21.171875 17.75 -22.25 16.96875 -23.03125 C 16.195312 -23.8125 15.003906 -24.203125 13.390625 -24.203125 L 8.578125 -24.203125 Z M 8.578125 -15.484375 "/></g></g></g><g fill="#168119" fill-opacity="1"><g transform="translate(85.514256, 41.082628)"><g><path d="M 26.21875 0 L 20.234375 0 L 8.578125 -19.125 L 8.578125 0 L 2.59375 0 L 2.59375 -29.0625 L 8.578125 -29.0625 L 20.265625 -9.90625 L 20.265625 -29.0625 L 26.21875 -29.0625 Z M 26.21875 0 "/></g></g></g><g fill="#168119" fill-opacity="1"><g transform="translate(113.963067, 41.082628)"><g/></g></g><g fill="#168119" fill-opacity="1"><g transform="translate(123.732268, 41.082628)"><g><path d="M 10.421875 -29.0625 L 17.890625 -7.984375 L 25.3125 -29.0625 L 33.171875 -29.0625 L 33.171875 0 L 27.15625 0 L 27.15625 -7.9375 L 27.765625 -21.65625 L 19.921875 0 L 15.8125 0 L 7.984375 -21.640625 L 8.578125 -7.9375 L 8.578125 0 L 2.59375 0 L 2.59375 -29.0625 Z M 10.421875 -29.0625 "/></g></g></g><g fill="#168119" fill-opacity="1"><g transform="translate(159.126062, 41.082628)"><g><path d="M 26.46875 -13.875 C 26.46875 -11.007812 25.960938 -8.5 24.953125 -6.34375 C 23.941406 -4.1875 22.492188 -2.519531 20.609375 -1.34375 C 18.722656 -0.175781 16.5625 0.40625 14.125 0.40625 C 11.71875 0.40625 9.566406 -0.171875 7.671875 -1.328125 C 5.785156 -2.492188 4.320312 -4.148438 3.28125 -6.296875 C 2.25 -8.441406 1.726562 -10.914062 1.71875 -13.71875 L 1.71875 -15.15625 C 1.71875 -18.007812 2.234375 -20.523438 3.265625 -22.703125 C 4.296875 -24.878906 5.75 -26.546875 7.625 -27.703125 C 9.507812 -28.867188 11.660156 -29.453125 14.078125 -29.453125 C 16.503906 -29.453125 18.660156 -28.867188 20.546875 -27.703125 C 22.429688 -26.546875 23.890625 -24.878906 24.921875 -22.703125 C 25.953125 -20.523438 26.46875 -18.015625 26.46875 -15.171875 Z M 20.390625 -15.1875 C 20.390625 -18.238281 19.84375 -20.554688 18.75 -22.140625 C 17.664062 -23.722656 16.113281 -24.515625 14.09375 -24.515625 C 12.082031 -24.515625 10.53125 -23.726562 9.4375 -22.15625 C 8.34375 -20.59375 7.789062 -18.300781 7.78125 -15.28125 L 7.78125 -13.875 C 7.78125 -10.90625 8.328125 -8.601562 9.421875 -6.96875 C 10.515625 -5.332031 12.082031 -4.515625 14.125 -4.515625 C 16.132812 -4.515625 17.675781 -5.300781 18.75 -6.875 C 19.832031 -8.445312 20.378906 -10.742188 20.390625 -13.765625 Z M 20.390625 -15.1875 "/></g></g></g><g fill="#168119" fill-opacity="1"><g transform="translate(186.936254, 41.082628)"><g><path d="M 26.21875 0 L 20.234375 0 L 8.578125 -19.125 L 8.578125 0 L 2.59375 0 L 2.59375 -29.0625 L 8.578125 -29.0625 L 20.265625 -9.90625 L 20.265625 -29.0625 L 26.21875 -29.0625 Z M 26.21875 0 "/></g></g></g><g fill="#168119" fill-opacity="1"><g transform="translate(215.385076, 41.082628)"><g><path d="M 20.078125 -12.59375 L 8.578125 -12.59375 L 8.578125 -4.8125 L 22.078125 -4.8125 L 22.078125 0 L 2.59375 0 L 2.59375 -29.0625 L 22.03125 -29.0625 L 22.03125 -24.203125 L 8.578125 -24.203125 L 8.578125 -17.28125 L 20.078125 -17.28125 Z M 20.078125 -12.59375 "/></g></g></g><g fill="#168119" fill-opacity="1"><g transform="translate(237.966573, 41.082628)"><g><path d="M 12.609375 -15.96875 L 18.65625 -29.0625 L 25.203125 -29.0625 L 15.671875 -10.53125 L 15.671875 0 L 9.578125 0 L 9.578125 -10.53125 L 0.046875 -29.0625 L 6.609375 -29.0625 Z M 12.609375 -15.96875 "/></g></g></g><g fill="#000000" fill-opacity="1"><g transform="translate(6.552983, 37.469408)"><g><path d="M 20.078125 -12.59375 L 8.578125 -12.59375 L 8.578125 -4.8125 L 22.078125 -4.8125 L 22.078125 0 L 2.59375 0 L 2.59375 -29.0625 L 22.03125 -29.0625 L 22.03125 -24.203125 L 8.578125 -24.203125 L 8.578125 -17.28125 L 20.078125 -17.28125 Z M 20.078125 -12.59375 "/></g></g></g><g fill="#000000" fill-opacity="1"><g transform="translate(29.134482, 37.469408)"><g><path d="M 19 -5.984375 L 8.5 -5.984375 L 6.5 0 L 0.140625 0 L 10.953125 -29.0625 L 16.5 -29.0625 L 27.390625 0 L 21.015625 0 Z M 10.125 -10.84375 L 17.390625 -10.84375 L 13.734375 -21.71875 Z M 10.125 -10.84375 "/></g></g></g><g fill="#000000" fill-opacity="1"><g transform="translate(56.226227, 37.469408)"><g><path d="M 13.359375 -10.640625 L 8.578125 -10.640625 L 8.578125 0 L 2.59375 0 L 2.59375 -29.0625 L 13.390625 -29.0625 C 16.828125 -29.0625 19.472656 -28.296875 21.328125 -26.765625 C 23.191406 -25.234375 24.125 -23.070312 24.125 -20.28125 C 24.125 -18.289062 23.695312 -16.632812 22.84375 -15.3125 C 21.988281 -13.988281 20.6875 -12.9375 18.9375 -12.15625 L 25.234375 -0.28125 L 25.234375 0 L 18.796875 0 Z M 8.578125 -15.484375 L 13.40625 -15.484375 C 14.914062 -15.484375 16.082031 -15.863281 16.90625 -16.625 C 17.726562 -17.394531 18.140625 -18.453125 18.140625 -19.796875 C 18.140625 -21.171875 17.75 -22.25 16.96875 -23.03125 C 16.195312 -23.8125 15.003906 -24.203125 13.390625 -24.203125 L 8.578125 -24.203125 Z M 8.578125 -15.484375 "/></g></g></g><g fill="#000000" fill-opacity="1"><g transform="translate(81.901036, 37.469408)"><g><path d="M 26.21875 0 L 20.234375 0 L 8.578125 -19.125 L 8.578125 0 L 2.59375 0 L 2.59375 -29.0625 L 8.578125 -29.0625 L 20.265625 -9.90625 L 20.265625 -29.0625 L 26.21875 -29.0625 Z M 26.21875 0 "/></g></g></g><g fill="#000000" fill-opacity="1"><g transform="translate(110.349847, 37.469408)"><g/></g></g><g fill="#000000" fill-opacity="1"><g transform="translate(120.119049, 37.469408)"><g><path d="M 10.421875 -29.0625 L 17.890625 -7.984375 L 25.3125 -29.0625 L 33.171875 -29.0625 L 33.171875 0 L 27.15625 0 L 27.15625 -7.9375 L 27.765625 -21.65625 L 19.921875 0 L 15.8125 0 L 7.984375 -21.640625 L 8.578125 -7.9375 L 8.578125 0 L 2.59375 0 L 2.59375 -29.0625 Z M 10.421875 -29.0625 "/></g></g></g><g fill="#000000" fill-opacity="1"><g transform="translate(155.512843, 37.469408)"><g><path d="M 26.46875 -13.875 C 26.46875 -11.007812 25.960938 -8.5 24.953125 -6.34375 C 23.941406 -4.1875 22.492188 -2.519531 20.609375 -1.34375 C 18.722656 -0.175781 16.5625 0.40625 14.125 0.40625 C 11.71875 0.40625 9.566406 -0.171875 7.671875 -1.328125 C 5.785156 -2.492188 4.320312 -4.148438 3.28125 -6.296875 C 2.25 -8.441406 1.726562 -10.914062 1.71875 -13.71875 L 1.71875 -15.15625 C 1.71875 -18.007812 2.234375 -20.523438 3.265625 -22.703125 C 4.296875 -24.878906 5.75 -26.546875 7.625 -27.703125 C 9.507812 -28.867188 11.660156 -29.453125 14.078125 -29.453125 C 16.503906 -29.453125 18.660156 -28.867188 20.546875 -27.703125 C 22.429688 -26.546875 23.890625 -24.878906 24.921875 -22.703125 C 25.953125 -20.523438 26.46875 -18.015625 26.46875 -15.171875 Z M 20.390625 -15.1875 C 20.390625 -18.238281 19.84375 -20.554688 18.75 -22.140625 C 17.664062 -23.722656 16.113281 -24.515625 14.09375 -24.515625 C 12.082031 -24.515625 10.53125 -23.726562 9.4375 -22.15625 C 8.34375 -20.59375 7.789062 -18.300781 7.78125 -15.28125 L 7.78125 -13.875 C 7.78125 -10.90625 8.328125 -8.601562 9.421875 -6.96875 C 10.515625 -5.332031 12.082031 -4.515625 14.125 -4.515625 C 16.132812 -4.515625 17.675781 -5.300781 18.75 -6.875 C 19.832031 -8.445312 20.378906 -10.742188 20.390625 -13.765625 Z M 20.390625 -15.1875 "/></g></g></g><g fill="#000000" fill-opacity="1"><g transform="translate(183.323034, 37.469408)"><g><path d="M 26.21875 0 L 20.234375 0 L 8.578125 -19.125 L 8.578125 0 L 2.59375 0 L 2.59375 -29.0625 L 8.578125 -29.0625 L 20.265625 -9.90625 L 20.265625 -29.0625 L 26.21875 -29.0625 Z M 26.21875 0 "/></g></g></g><g fill="#000000" fill-opacity="1"><g transform="translate(211.771856, 37.469408)"><g><path d="M 20.078125 -12.59375 L 8.578125 -12.59375 L 8.578125 -4.8125 L 22.078125 -4.8125 L 22.078125 0 L 2.59375 0 L 2.59375 -29.0625 L 22.03125 -29.0625 L 22.03125 -24.203125 L 8.578125 -24.203125 L 8.578125 -17.28125 L 20.078125 -17.28125 Z M 20.078125 -12.59375 "/></g></g></g><g fill="#000000" fill-opacity="1"><g transform="translate(234.353354, 37.469408)"><g><path d="M 12.609375 -15.96875 L 18.65625 -29.0625 L 25.203125 -29.0625 L 15.671875 -10.53125 L 15.671875 0 L 9.578125 0 L 9.578125 -10.53125 L 0.046875 -29.0625 L 6.609375 -29.0625 Z M 12.609375 -15.96875 "/></g></g></g><g fill="#168119" fill-opacity="1"><g transform="translate(66.239078, 79.220128)"><g><path d="M 26.46875 -13.875 C 26.46875 -11.007812 25.960938 -8.5 24.953125 -6.34375 C 23.941406 -4.1875 22.492188 -2.519531 20.609375 -1.34375 C 18.722656 -0.175781 16.5625 0.40625 14.125 0.40625 C 11.71875 0.40625 9.566406 -0.171875 7.671875 -1.328125 C 5.785156 -2.492188 4.320312 -4.148438 3.28125 -6.296875 C 2.25 -8.441406 1.726562 -10.914062 1.71875 -13.71875 L 1.71875 -15.15625 C 1.71875 -18.007812 2.234375 -20.523438 3.265625 -22.703125 C 4.296875 -24.878906 5.75 -26.546875 7.625 -27.703125 C 9.507812 -28.867188 11.660156 -29.453125 14.078125 -29.453125 C 16.503906 -29.453125 18.660156 -28.867188 20.546875 -27.703125 C 22.429688 -26.546875 23.890625 -24.878906 24.921875 -22.703125 C 25.953125 -20.523438 26.46875 -18.015625 26.46875 -15.171875 Z M 20.390625 -15.1875 C 20.390625 -18.238281 19.84375 -20.554688 18.75 -22.140625 C 17.664062 -23.722656 16.113281 -24.515625 14.09375 -24.515625 C 12.082031 -24.515625 10.53125 -23.726562 9.4375 -22.15625 C 8.34375 -20.59375 7.789062 -18.300781 7.78125 -15.28125 L 7.78125 -13.875 C 7.78125 -10.90625 8.328125 -8.601562 9.421875 -6.96875 C 10.515625 -5.332031 12.082031 -4.515625 14.125 -4.515625 C 16.132812 -4.515625 17.675781 -5.300781 18.75 -6.875 C 19.832031 -8.445312 20.378906 -10.742188 20.390625 -13.765625 Z M 20.390625 -15.1875 "/></g></g></g><g fill="#168119" fill-opacity="1"><g transform="translate(94.049269, 79.220128)"><g><path d="M 26.21875 0 L 20.234375 0 L 8.578125 -19.125 L 8.578125 0 L 2.59375 0 L 2.59375 -29.0625 L 8.578125 -29.0625 L 20.265625 -9.90625 L 20.265625 -29.0625 L 26.21875 -29.0625 Z M 26.21875 0 "/></g></g></g><g fill="#168119" fill-opacity="1"><g transform="translate(122.49808, 79.220128)"><g><path d="M 8.578125 -4.8125 L 21.296875 -4.8125 L 21.296875 0 L 2.59375 0 L 2.59375 -29.0625 L 8.578125 -29.0625 Z M 8.578125 -4.8125 "/></g></g></g><g fill="#168119" fill-opacity="1"><g transform="translate(144.221433, 79.220128)"><g><path d="M 8.96875 0 L 2.96875 0 L 2.96875 -29.0625 L 8.96875 -29.0625 Z M 8.96875 0 "/></g></g></g><g fill="#168119" fill-opacity="1"><g transform="translate(155.72688, 79.220128)"><g><path d="M 26.21875 0 L 20.234375 0 L 8.578125 -19.125 L 8.578125 0 L 2.59375 0 L 2.59375 -29.0625 L 8.578125 -29.0625 L 20.265625 -9.90625 L 20.265625 -29.0625 L 26.21875 -29.0625 Z M 26.21875 0 "/></g></g></g><g fill="#168119" fill-opacity="1"><g transform="translate(184.175691, 79.220128)"><g><path d="M 20.078125 -12.59375 L 8.578125 -12.59375 L 8.578125 -4.8125 L 22.078125 -4.8125 L 22.078125 0 L 2.59375 0 L 2.59375 -29.0625 L 22.03125 -29.0625 L 22.03125 -24.203125 L 8.578125 -24.203125 L 8.578125 -17.28125 L 20.078125 -17.28125 Z M 20.078125 -12.59375 "/></g></g></g><g fill="#000000" fill-opacity="1"><g transform="translate(62.625858, 75.606909)"><g><path d="M 26.46875 -13.875 C 26.46875 -11.007812 25.960938 -8.5 24.953125 -6.34375 C 23.941406 -4.1875 22.492188 -2.519531 20.609375 -1.34375 C 18.722656 -0.175781 16.5625 0.40625 14.125 0.40625 C 11.71875 0.40625 9.566406 -0.171875 7.671875 -1.328125 C 5.785156 -2.492188 4.320312 -4.148438 3.28125 -6.296875 C 2.25 -8.441406 1.726562 -10.914062 1.71875 -13.71875 L 1.71875 -15.15625 C 1.71875 -18.007812 2.234375 -20.523438 3.265625 -22.703125 C 4.296875 -24.878906 5.75 -26.546875 7.625 -27.703125 C 9.507812 -28.867188 11.660156 -29.453125 14.078125 -29.453125 C 16.503906 -29.453125 18.660156 -28.867188 20.546875 -27.703125 C 22.429688 -26.546875 23.890625 -24.878906 24.921875 -22.703125 C 25.953125 -20.523438 26.46875 -18.015625 26.46875 -15.171875 Z M 20.390625 -15.1875 C 20.390625 -18.238281 19.84375 -20.554688 18.75 -22.140625 C 17.664062 -23.722656 16.113281 -24.515625 14.09375 -24.515625 C 12.082031 -24.515625 10.53125 -23.726562 9.4375 -22.15625 C 8.34375 -20.59375 7.789062 -18.300781 7.78125 -15.28125 L 7.78125 -13.875 C 7.78125 -10.90625 8.328125 -8.601562 9.421875 -6.96875 C 10.515625 -5.332031 12.082031 -4.515625 14.125 -4.515625 C 16.132812 -4.515625 17.675781 -5.300781 18.75 -6.875 C 19.832031 -8.445312 20.378906 -10.742188 20.390625 -13.765625 Z M 20.390625 -15.1875 "/></g></g></g><g fill="#000000" fill-opacity="1"><g transform="translate(90.43605, 75.606909)"><g><path d="M 26.21875 0 L 20.234375 0 L 8.578125 -19.125 L 8.578125 0 L 2.59375 0 L 2.59375 -29.0625 L 8.578125 -29.0625 L 20.265625 -9.90625 L 20.265625 -29.0625 L 26.21875 -29.0625 Z M 26.21875 0 "/></g></g></g><g fill="#000000" fill-opacity="1"><g transform="translate(118.88486, 75.606909)"><g><path d="M 8.578125 -4.8125 L 21.296875 -4.8125 L 21.296875 0 L 2.59375 0 L 2.59375 -29.0625 L 8.578125 -29.0625 Z M 8.578125 -4.8125 "/></g></g></g><g fill="#000000" fill-opacity="1"><g transform="translate(140.608213, 75.606909)"><g><path d="M 8.96875 0 L 2.96875 0 L 2.96875 -29.0625 L 8.96875 -29.0625 Z M 8.96875 0 "/></g></g></g><g fill="#000000" fill-opacity="1"><g transform="translate(152.113661, 75.606909)"><g><path d="M 26.21875 0 L 20.234375 0 L 8.578125 -19.125 L 8.578125 0 L 2.59375 0 L 2.59375 -29.0625 L 8.578125 -29.0625 L 20.265625 -9.90625 L 20.265625 -29.0625 L 26.21875 -29.0625 Z M 26.21875 0 "/></g></g></g><g fill="#000000" fill-opacity="1"><g transform="translate(180.562471, 75.606909)"><g><path d="M 20.078125 -12.59375 L 8.578125 -12.59375 L 8.578125 -4.8125 L 22.078125 -4.8125 L 22.078125 0 L 2.59375 0 L 2.59375 -29.0625 L 22.03125 -29.0625 L 22.03125 -24.203125 L 8.578125 -24.203125 L 8.578125 -17.28125 L 20.078125 -17.28125 Z M 20.078125 -12.59375 "/></g></g></g></svg>